<svg width="52" height="52" viewBox="0 0 52 52" fill="none" xmlns="http://www.w3.org/2000/svg">
<path d="M39.8891 25.9987V39.888M28.7772 39.888V34.332M1 34.332L8.86129 26.4707M14.8893 12.1094C12.6791 12.1094 10.5595 12.9873 8.99673 14.5502C7.43394 16.113 6.55597 18.2326 6.55597 20.4427C6.55597 22.6528 7.43394 24.7725 8.99673 26.3353C10.5595 27.8981 12.6791 28.776 14.8893 28.776C17.0994 28.776 19.219 27.8981 20.7818 26.3353C22.3446 24.7725 23.2225 22.6528 23.2225 20.4427C23.2225 18.2326 22.3446 16.113 20.7818 14.5502C19.219 12.9873 17.0994 12.1094 14.8893 12.1094Z" stroke="#716FFF" stroke-width="2" stroke-linecap="round" stroke-linejoin="round"/>
<path d="M14.8895 1H48.2226C48.9592 1 49.6657 1.29261 50.1865 1.81346C50.7074 2.33431 51 3.04074 51 3.77733V48.2227C51 48.9593 50.7074 49.6657 50.1865 50.1865C49.6657 50.7074 48.9592 51 48.2226 51H14.8895C14.5247 51.0002 14.1634 50.9285 13.8262 50.789C13.4891 50.6495 13.1828 50.4449 12.9248 50.187C12.6667 49.9291 12.462 49.6229 12.3224 49.2858C12.1827 48.9488 12.1108 48.5875 12.1108 48.2227V39.8893" stroke="#716FFF" stroke-width="2" stroke-linecap="round" stroke-linejoin="round"/>
</svg>
