<svg width="83" height="79" viewBox="0 0 83 79" fill="none" xmlns="http://www.w3.org/2000/svg">
<path d="M73.4992 49.4967V17.4989C73.4992 9.95543 73.4992 6.18768 71.1554 3.84384C68.8115 1.5 65.0438 1.5 57.5003 1.5H25.5025C17.959 1.5 14.1912 1.5 11.8474 3.84384C9.50355 6.18768 9.50355 9.95543 9.50355 17.4989V49.4967M7.49569 53.5565L9.58355 49.4967H73.3072L75.5071 53.5565C81.2787 64.2038 82.7186 69.5274 80.5227 73.5111C78.3269 77.4948 72.5153 77.4948 60.8841 77.4948H22.1187C10.4835 77.4948 4.66788 77.4948 2.47603 73.5111C0.28018 69.5274 1.72008 64.2038 7.49569 53.5565Z" fill="#1E4476"/>
<path d="M73.4992 49.4967V17.4989C73.4992 9.95543 73.4992 6.18768 71.1554 3.84384C68.8115 1.5 65.0438 1.5 57.5003 1.5H25.5025C17.959 1.5 14.1912 1.5 11.8474 3.84384C9.50355 6.18768 9.50355 9.95543 9.50355 17.4989V49.4967M7.49569 53.5565L9.58355 49.4967H73.3072L75.5071 53.5565C81.2787 64.2038 82.7186 69.5274 80.5227 73.5111C78.3269 77.4948 72.5153 77.4948 60.8841 77.4948H22.1187C10.4835 77.4948 4.66788 77.4948 2.47603 73.5111C0.28018 69.5274 1.72008 64.2038 7.49569 53.5565Z" stroke="#1877F2" stroke-width="3" stroke-linecap="round" stroke-linejoin="round"/>
<path d="M55.5006 19.4983L59.1804 22.6701C60.7283 24.002 61.5002 24.6699 61.5002 25.4979C61.5002 26.3258 60.7283 26.9938 59.1804 28.3257L55.5006 31.4975M27.5025 19.4983L23.8228 22.6701C22.2749 24.002 21.5029 24.6699 21.5029 25.4979C21.5029 26.3258 22.2749 26.9938 23.8228 28.3257L27.5025 31.4975M45.5013 15.4985L37.5018 35.4972" stroke="#FF52A1" stroke-width="5" stroke-linecap="round" stroke-linejoin="round"/>
</svg>
