<svg width="54" height="80" viewBox="0 0 54 80" fill="none" xmlns="http://www.w3.org/2000/svg">
<path d="M13.4375 80.0002C20.875 80.0002 26.875 74.0467 26.875 66.6668V53.3335H13.4375C6 53.3335 0 59.287 0 66.6668C0 74.0467 6 80.0002 13.4375 80.0002Z" fill="#0ACF83"/>
<path d="M0 39.9998C0 32.62 6 26.6665 13.4375 26.6665H26.875V53.3332H13.4375C6 53.3332 0 47.3797 0 39.9998Z" fill="#A259FF"/>
<path d="M0 13.3333C0 5.95349 6 0 13.4375 0H26.875V26.6667H13.4375C6 26.6667 0 20.7132 0 13.3333Z" fill="#F24E1E"/>
<path d="M26.875 0H40.3125C47.75 0 53.75 5.95349 53.75 13.3333C53.75 20.7132 47.75 26.6667 40.3125 26.6667H26.875V0Z" fill="#FF7262"/>
<path d="M53.75 39.9998C53.75 47.3797 47.75 53.3332 40.3125 53.3332C32.875 53.3332 26.875 47.3797 26.875 39.9998C26.875 32.62 32.875 26.6665 40.3125 26.6665C47.75 26.6665 53.75 32.62 53.75 39.9998Z" fill="#1ABCFE"/>
</svg>
