<svg width="80" height="80" viewBox="0 0 80 80" fill="none" xmlns="http://www.w3.org/2000/svg">
<path d="M66.6668 48.3335V21.6668C66.6668 15.3802 66.6668 12.2402 64.7135 10.2868C62.7602 8.3335 59.6202 8.3335 53.3335 8.3335H26.6668C20.3802 8.3335 17.2402 8.3335 15.2868 10.2868C13.3335 12.2402 13.3335 15.3802 13.3335 21.6668V48.3335M11.6602 51.7168L13.4002 48.3335H66.5068L68.3402 51.7168C73.1502 60.5902 74.3502 65.0268 72.5202 68.3468C70.6902 71.6668 65.8468 71.6668 56.1535 71.6668H23.8468C14.1502 71.6668 9.30349 71.6668 7.47683 68.3468C5.64683 65.0268 6.84683 60.5902 11.6602 51.7168Z" stroke="#1877F2" stroke-width="1.5" stroke-linecap="round" stroke-linejoin="round"/>
<path d="M51.6668 23.3333L54.7335 25.9767C56.0235 27.0867 56.6668 27.6433 56.6668 28.3333C56.6668 29.0233 56.0235 29.58 54.7335 30.69L51.6668 33.3333M28.3335 23.3333L25.2668 25.9767C23.9768 27.0867 23.3335 27.6433 23.3335 28.3333C23.3335 29.0233 23.9768 29.58 25.2668 30.69L28.3335 33.3333M43.3335 20L36.6668 36.6667" stroke="#1877F2" stroke-width="1.5" stroke-linecap="round" stroke-linejoin="round"/>
</svg>
