<svg width="82" height="80" viewBox="0 0 82 80" fill="none" xmlns="http://www.w3.org/2000/svg">
<g clip-path="url(#clip0_152_8)">
<path d="M68.3867 0H13.6133C6.09487 0 0 6.08893 0 13.6V66.272C0 73.7831 6.09487 79.872 13.6133 79.872H68.3867C75.9051 79.872 82 73.7831 82 66.272V13.6C82 6.08893 75.9051 0 68.3867 0Z" fill="#470137"/>
<path d="M43.1071 21.0046L32.8754 37.876L43.822 55.7912C43.8925 55.9166 43.912 56.0638 43.8771 56.2033C43.8601 56.2629 43.8236 56.2776 43.7676 56.2798L43.7054 56.2789L43.6298 56.2769C43.5888 56.2769 43.543 56.2789 43.4921 56.2872H35.5996L35.4446 56.2846C35.0192 56.2734 34.7127 56.2126 34.5259 55.9009C33.7956 54.4796 33.0621 53.06 32.3254 51.6421C31.6663 50.3774 30.9894 49.1221 30.2946 47.8766L29.9877 47.3281C29.1568 45.8527 28.3408 44.3689 27.5399 42.8769H27.4848C26.7452 44.3533 25.9842 45.8188 25.2019 47.2731C24.4129 48.7387 23.6336 50.195 22.864 51.6421C22.0938 53.0899 21.3054 54.528 20.4988 55.956C20.3691 56.2472 20.1535 56.308 19.8534 56.3179L19.7284 56.3198H12.1925L12.1598 56.3208L12.0522 56.3304C11.9923 56.3339 11.9564 56.3211 11.9449 56.2309C11.9243 56.0969 11.9537 55.96 12.0275 55.8462L22.6439 38.4254L12.3023 20.9502C12.1926 20.8043 12.1742 20.6853 12.2472 20.5931C12.2878 20.5461 12.3388 20.5093 12.3961 20.4854C12.4534 20.4615 12.5155 20.4513 12.5775 20.4555H20.3335C20.5026 20.4463 20.6717 20.4745 20.8287 20.5381C20.96 20.6126 21.0731 20.716 21.1586 20.8405C21.8187 22.3061 22.5522 23.7714 23.3592 25.2366C24.1598 26.6923 24.9758 28.1396 25.807 29.5781C26.6255 30.9943 27.3871 32.4426 28.0899 33.9195H28.145C28.8652 32.4429 29.6079 30.9774 30.3727 29.5233C31.124 28.0944 31.894 26.6563 32.6828 25.2091C33.4614 23.7806 34.2225 22.3426 34.9657 20.8955C35.008 20.7598 35.0836 20.6369 35.1858 20.5381C35.3216 20.4693 35.4743 20.4406 35.6259 20.4555H42.8319C42.8982 20.439 42.968 20.4444 43.0309 20.471C43.0938 20.4975 43.1464 20.5438 43.1807 20.6028C43.215 20.6617 43.2292 20.7302 43.2212 20.798C43.2132 20.8657 43.1834 20.929 43.1362 20.9784L43.1071 21.0046ZM59.2733 56.996L58.894 57.0001C56.3621 57.0388 53.8533 56.5132 51.5502 55.4616C49.4047 54.4695 47.6112 52.8502 46.407 50.8177C45.1925 48.8028 44.5695 46.2924 44.5379 43.2865L44.5366 43.0417C44.516 40.5195 45.1612 38.0364 46.4073 35.8427C47.6543 33.6714 49.4723 31.8825 51.6642 30.6696L51.8529 30.5672C54.236 29.2481 57.1148 28.5886 60.4892 28.5886L60.6365 28.5902L60.805 28.5957L60.994 28.604L61.2041 28.6161L61.5571 28.6411L61.9568 28.6731L62.2493 28.6987V17.8725C62.2493 17.6162 62.3593 17.488 62.5792 17.4878H69.5105C69.5553 17.4814 69.601 17.4855 69.6439 17.4998C69.6869 17.5141 69.7259 17.5382 69.758 17.5702C69.79 17.6021 69.8141 17.6411 69.8284 17.6841C69.8427 17.727 69.8468 17.7726 69.8404 17.8174V50.2958C69.8404 50.8413 69.8615 51.4284 69.9038 52.0571L70.0063 53.4827L70.0607 54.3073C70.0675 54.4215 70.0396 54.5351 69.9807 54.6332C69.9218 54.7313 69.8346 54.8093 69.7305 54.8571C67.9424 55.602 66.0799 56.1545 64.1747 56.5054C62.5572 56.8038 60.9178 56.9679 59.2733 56.996ZM62.2493 50.1857V35.1832C61.952 35.1027 61.6484 35.0476 61.3418 35.0184C60.9671 34.9806 60.5907 34.9622 60.214 34.9633C58.8792 34.9499 57.56 35.2512 56.3635 35.8427C55.1983 36.4218 54.2033 37.2928 53.4756 38.3707C52.7494 39.4318 52.3738 40.8174 52.3491 42.5275L52.3478 42.7121C52.3211 43.91 52.517 45.1024 52.9253 46.2289C53.2579 47.1368 53.7835 47.9618 54.466 48.6472C55.1191 49.2777 55.9099 49.748 56.7761 50.0209C57.691 50.3168 58.6473 50.4653 59.6089 50.4609C60.1221 50.4609 60.5988 50.4425 61.0391 50.4056C61.3904 50.3792 61.7386 50.3213 62.0795 50.2328L62.2493 50.1857Z" fill="#FF61F6"/>
</g>
<defs>
<clipPath id="clip0_152_8">
<rect width="82" height="80" fill="white"/>
</clipPath>
</defs>
</svg>
