<svg width="80" height="80" viewBox="0 0 80 80" fill="none" xmlns="http://www.w3.org/2000/svg">
<path d="M14.1669 0H65.8331C73.6669 0 80 6.49551 80 14.5301V65.4699C80 73.5045 73.6669 80 65.8331 80H14.1669C6.33312 80 0 73.5045 0 65.4699V14.5301C0 6.49551 6.33312 0 14.1669 0Z" fill="#001E36"/>
<path d="M28.6669 20.3413C27.6669 20.3413 26.6669 20.3413 25.6338 20.3759C24.6 20.4099 23.6331 20.4099 22.7331 20.4445C21.8331 20.4785 21 20.4785 20.2 20.5125C19.4331 20.5464 18.9 20.5464 18.3331 20.5464C18.1 20.5464 18 20.683 18 20.9227V56.1022C18 56.4099 18.1331 56.5471 18.4 56.5471H24.8669C25.1 56.5125 25.2669 56.3073 25.2331 56.0682V45.0939C25.8663 45.0939 26.3331 45.0939 26.6669 45.1278C27 45.1618 27.5331 45.1618 28.3331 45.1618C31.0669 45.1618 33.5669 44.8541 35.8331 43.9996C38 43.1791 39.8669 41.7432 41.2 39.8285C42.5333 37.914 43.2 35.4866 43.2 32.5464C43.2 31.008 42.9337 29.5381 42.4337 28.1022C41.9039 26.6393 41.074 25.3102 40 24.2048C38.7324 22.9417 37.2065 21.9839 35.5331 21.4009C33.6663 20.683 31.4 20.3413 28.6669 20.3413ZM29.4106 27.0753C30.5981 27.0984 31.7544 27.3112 32.8331 27.7599C33.8 28.1362 34.6 28.8202 35.1669 29.7086C35.6985 30.6281 35.9645 31.6836 35.9338 32.7522C35.9338 34.2561 35.6 35.4189 34.9 36.2734C34.1663 37.1278 33.2331 37.7778 32.1669 38.0855C30.9331 38.4958 29.6331 38.7003 28.3331 38.7003H26.5663C26.1663 38.7003 25.7337 38.6663 25.2669 38.6323V27.1452C25.5 27.1105 25.9669 27.0766 26.6337 27.1112C27.2669 27.0766 28.0331 27.0766 28.9 27.0766C29.0708 27.0723 29.241 27.0719 29.4106 27.0753ZM57.3669 28.8208C55 28.8208 53.0331 29.1964 51.4669 30.0169C50.0338 30.7009 48.8 31.7945 47.9669 33.1618C47.2338 34.4272 46.8331 35.8285 46.8331 37.299C46.8046 38.5085 47.0681 39.7064 47.6 40.7862C48.2234 41.936 49.089 42.9287 50.1337 43.692C51.6001 44.7206 53.1913 45.5481 54.8669 46.1535C56.5 46.8028 57.6 47.3157 58.1338 47.7599C58.6669 48.2048 58.9338 48.649 58.9338 49.1278C58.9338 49.7432 58.5669 50.3246 58.0338 50.5637C57.4338 50.8714 56.5338 51.0426 55.2669 51.0426C53.9338 51.0426 52.6 50.8714 51.3331 50.5298C49.8785 50.1966 48.4838 49.6314 47.2 48.8548C47.1 48.7862 47 48.7522 46.9 48.8208C46.8 48.8887 46.7669 49.0253 46.7669 49.1278V55.0766C46.7338 55.3503 46.9 55.5894 47.1338 55.7259C48.2147 56.2439 49.3581 56.6118 50.5337 56.8202C52.0337 57.1278 53.5331 57.2644 55.0663 57.2644C57.4663 57.2644 59.4669 56.8887 61.1 56.1708C62.6 55.5554 63.9 54.4958 64.8331 53.1278C65.7071 51.783 66.1605 50.197 66.1331 48.5811C66.166 47.3604 65.9027 46.1504 65.3669 45.0599C64.7331 43.8971 63.8331 42.94 62.7331 42.2221C61.1239 41.1856 59.4009 40.3477 57.6 39.7259C56.7958 39.3845 56.0061 39.0081 55.2331 38.5977C54.8 38.3586 54.4 38.0509 54.1 37.6746C53.9 37.4009 53.7669 37.0939 53.7669 36.7862C53.7669 36.4785 53.8669 36.1368 54.0331 35.8631C54.2669 35.5214 54.6331 35.2817 55.0663 35.1791C55.7 35.0086 56.4 34.9054 57.0662 34.9394C58.3331 34.9394 59.5662 35.1105 60.8 35.3843C61.9337 35.6234 63 35.9996 64 36.5471C64.1331 36.615 64.3 36.615 64.6 36.5471C64.6521 36.5075 64.6943 36.4559 64.7233 36.3964C64.7523 36.3369 64.7672 36.2713 64.7669 36.2048V30.6323C64.7669 30.4952 64.7331 30.3586 64.7 30.2221C64.6331 30.0855 64.5 29.9484 64.3669 29.9144C63.4475 29.529 62.4842 29.2647 61.5 29.1278C60.1313 28.9234 58.75 28.8213 57.3669 28.8208Z" fill="#31A8FF"/>
</svg>
