<svg width="80" height="80" viewBox="0 0 80 80" fill="none" xmlns="http://www.w3.org/2000/svg">
<path d="M51.0199 23.0799C51.1573 22.4727 51.1717 21.844 51.0621 21.2311C50.9526 20.6183 50.7213 20.0335 50.382 19.5115C50.0427 18.9895 49.6022 18.5408 49.0866 18.1918C48.5709 17.8429 47.9906 17.6008 47.3799 17.4799C46.8097 17.2314 46.1955 17.0995 45.5735 17.0921C44.9516 17.0847 44.3344 17.2019 43.7585 17.4367C43.1825 17.6716 42.6594 18.0194 42.22 18.4596C41.7806 18.8998 41.4337 19.4235 41.1999 19.9999C38.5501 25.8868 36.3049 31.9475 34.4799 38.1399C32.4623 44.2759 30.8719 50.5442 29.7199 56.8999C29.5824 57.5071 29.5681 58.1358 29.6776 58.7486C29.7872 59.3615 30.0184 59.9463 30.3578 60.4683C30.6971 60.9903 31.1375 61.439 31.6532 61.788C32.1688 62.1369 32.7491 62.379 33.3599 62.4999C33.9274 62.7486 34.539 62.8812 35.1586 62.8897C35.7782 62.8982 36.3932 62.7826 36.9673 62.5496C37.5415 62.3165 38.0631 61.9709 38.5015 61.533C38.9399 61.0951 39.2862 60.5738 39.5199 59.9999C42.1882 54.1184 44.4404 48.0568 46.2599 41.8599C48.2783 35.7173 49.8688 29.4423 51.0199 23.0799ZM16.6399 43.7199C15.2999 42.2799 13.8199 40.7599 12.4199 39.3999C13.8199 38.0399 15.2999 36.5199 16.6399 35.0599C19.5831 31.9576 22.2593 28.6124 24.6399 25.0599C25.1123 24.2108 25.2709 23.2226 25.0881 22.2682C24.9053 21.3139 24.3926 20.4543 23.6399 19.8399C22.5199 18.6199 20.7399 17.3399 18.8199 18.7799C15.487 21.4281 12.3888 24.359 9.55987 27.5399C7.01832 30.3019 4.62815 33.1995 2.39987 36.2199C1.95983 36.6245 1.60855 37.1161 1.36826 37.6634C1.12797 38.2108 1.00391 38.8021 1.00391 39.3999C1.00391 39.9977 1.12797 40.589 1.36826 41.1364C1.60855 41.6837 1.95983 42.1753 2.39987 42.5799C4.6688 45.6027 7.09201 48.5065 9.65987 51.2799C12.4905 54.4469 15.5887 57.3644 18.9199 59.9999C20.9199 61.4199 22.6199 60.1399 23.7399 58.9199C24.4926 58.3055 25.0053 57.4459 25.1881 56.4916C25.3709 55.5372 25.2123 54.549 24.7399 53.6999C22.322 50.1539 19.6126 46.8156 16.6399 43.7199ZM63.3599 35.0599C64.6999 36.5199 66.1799 38.0399 67.5799 39.3999C66.1799 40.7599 64.6999 42.2799 63.3599 43.7199C60.3863 46.822 57.6768 50.1669 55.2599 53.7199C54.7875 54.569 54.6288 55.5572 54.8116 56.5116C54.9944 57.4659 55.5071 58.3255 56.2599 58.9399C57.3799 60.1599 59.1599 61.4399 61.0799 60.0199C64.4128 57.3717 67.5109 54.4408 70.3399 51.2599C72.9077 48.4865 75.3309 45.5827 77.5999 42.5599C78.0399 42.1553 78.3912 41.6637 78.6315 41.1164C78.8718 40.569 78.9958 39.9777 78.9958 39.3799C78.9958 38.7821 78.8718 38.1908 78.6315 37.6434C78.3912 37.0961 78.0399 36.6045 77.5999 36.1999C75.3398 33.1701 72.9162 30.2658 70.3399 27.4999C67.5109 24.319 64.4128 21.3881 61.0799 18.7399C59.0799 17.2999 57.3799 18.5799 56.2599 19.7999C55.5071 20.4143 54.9944 21.2739 54.8116 22.2282C54.6288 23.1826 54.7875 24.1708 55.2599 25.0199C57.6704 28.5901 60.3802 31.9488 63.3599 35.0599Z" fill="#FF52A1" stroke="#231F20" stroke-width="0.5" stroke-miterlimit="10"/>
<path d="M60.3797 22.4999C61.6351 23.4007 62.7534 24.4786 63.6997 25.6999M45.9997 20.9399C46.2512 20.979 46.4912 21.0722 46.7031 21.2132C46.9149 21.3541 47.0936 21.5394 47.2268 21.7563C47.36 21.9732 47.4444 22.2164 47.4743 22.4691C47.5041 22.7218 47.4787 22.978 47.3997 23.2199M21.2397 22.1399C21.5308 22.3255 21.739 22.6163 21.821 22.9516C21.903 23.287 21.8524 23.641 21.6797 23.9399" stroke="white" stroke-width="0.5" stroke-miterlimit="10" stroke-linecap="round"/>
</svg>
