<svg width="80" height="78" viewBox="0 0 80 78" fill="none" xmlns="http://www.w3.org/2000/svg">
<path d="M66.7188 0H13.2812C5.94622 0 0 5.94042 0 13.2683V64.6556C0 71.9835 5.94622 77.9239 13.2812 77.9239H66.7188C74.0538 77.9239 80 71.9835 80 64.6556V13.2683C80 5.94042 74.0538 0 66.7188 0Z" fill="#470137"/>
<path d="M42.0559 20.492L32.0737 36.9519L42.7534 54.4301C42.8221 54.5525 42.8412 54.6961 42.8071 54.8322C42.7906 54.8903 42.7549 54.9047 42.7002 54.9068L42.6396 54.9059L42.5659 54.904C42.5259 54.904 42.4812 54.9059 42.4315 54.914H34.7315L34.5802 54.9115C34.1652 54.9006 33.8662 54.8413 33.684 54.5372C32.9715 53.1506 32.2559 51.7656 31.5371 50.3822C30.8942 49.1483 30.2337 47.9237 29.5559 46.7086L29.2565 46.1735C28.4458 44.734 27.6497 43.2864 26.8684 41.8309H26.8146C26.0931 43.2712 25.3506 44.701 24.5874 46.1198C23.8176 47.5497 23.0573 48.9704 22.3065 50.3822C21.5551 51.7948 20.7859 53.1978 19.999 54.5909C19.8724 54.875 19.6621 54.9343 19.3693 54.944L19.2474 54.9459H11.8952L11.8634 54.9468L11.7584 54.9562C11.6999 54.9596 11.6649 54.9471 11.6537 54.8591C11.6337 54.7283 11.6623 54.5948 11.7343 54.4838L22.0918 37.4879L12.0024 20.4389C11.8953 20.2966 11.8774 20.1804 11.9487 20.0905C11.9883 20.0447 12.038 20.0087 12.0939 19.9854C12.1498 19.9621 12.2104 19.9522 12.2709 19.9563H19.8377C20.0028 19.9474 20.1677 19.9749 20.3209 20.0368C20.449 20.1096 20.5593 20.2104 20.6427 20.3319C21.2867 21.7617 22.0023 23.1914 22.7896 24.6208C23.5707 26.041 24.3668 27.4529 25.1777 28.8563C25.9763 30.238 26.7193 31.651 27.4049 33.0919H27.4587C28.1614 31.6513 28.8859 30.2215 29.6321 28.803C30.365 27.4089 31.1163 26.0059 31.8859 24.5939C32.6455 23.2003 33.3879 21.7974 34.1131 20.3856C34.1543 20.2532 34.2281 20.1333 34.3277 20.0368C34.4603 19.9697 34.6092 19.9418 34.7571 19.9563H41.7874C41.8521 19.9402 41.9202 19.9455 41.9815 19.9714C42.0429 19.9973 42.0942 20.0424 42.1276 20.1C42.1611 20.1575 42.175 20.2243 42.1672 20.2904C42.1594 20.3565 42.1303 20.4183 42.0843 20.4664L42.0559 20.492ZM57.8277 55.6055L57.4577 55.6096C54.9875 55.6473 52.54 55.1345 50.2931 54.1086C48.1999 53.1407 46.4501 51.5609 45.2752 49.578C44.0905 47.6122 43.4826 45.163 43.4518 42.2305L43.4506 41.9916C43.4304 39.5309 44.0599 37.1084 45.2756 34.9682C46.4922 32.8499 48.2658 31.1046 50.4043 29.9212L50.5884 29.8213C52.9134 28.5345 55.7219 27.891 59.014 27.891L59.1577 27.8926L59.3221 27.8979L59.5065 27.906L59.7115 27.9179L60.0559 27.9422L60.4459 27.9735L60.7312 27.9984V17.4362C60.7312 17.1863 60.8385 17.0612 61.0531 17.061H67.8152C67.859 17.0547 67.9036 17.0587 67.9455 17.0727C67.9874 17.0866 68.0255 17.1101 68.0567 17.1413C68.0879 17.1725 68.1115 17.2106 68.1254 17.2524C68.1394 17.2943 68.1434 17.3389 68.1371 17.3825V49.0688C68.1371 49.601 68.1577 50.1738 68.199 50.7871L68.299 52.1779L68.3521 52.9825C68.3587 53.0939 68.3315 53.2047 68.274 53.3004C68.2165 53.3961 68.1315 53.4722 68.0299 53.5188C66.2854 54.2455 64.4684 54.7846 62.6096 55.1269C61.0316 55.4181 59.4322 55.5782 57.8277 55.6055ZM60.7312 48.9614V34.3247C60.4412 34.2462 60.145 34.1925 59.8459 34.164C59.4803 34.1271 59.113 34.1091 58.7456 34.1103C57.4433 34.0972 56.1562 34.3911 54.989 34.9682C53.8522 35.5331 52.8815 36.3829 52.1715 37.4345C51.4629 38.4698 51.0966 39.8216 51.0724 41.4899L51.0712 41.6701C51.0452 42.8387 51.2362 44.002 51.6346 45.1011C51.9591 45.9868 52.4719 46.7917 53.1377 47.4604C53.7749 48.0755 54.5465 48.5343 55.3915 48.8006C56.2841 49.0893 57.217 49.2342 58.1552 49.2299C58.6559 49.2299 59.121 49.2119 59.5506 49.1759C59.8933 49.1501 60.2329 49.0937 60.5656 49.0073L60.7312 48.9614Z" fill="#FF61F6"/>
</svg>
